@startuml
'https://plantuml.com/class-diagram

abstract class AbstractList
abstract AbstractCollection
interface List
interface Collection

List <|-- AbstractList
Collection <|-- AbstractCollection

Collection <|- List
AbstractCollection <|- AbstractList
AbstractList <|-- ArrayList

class ArrayList {
Object[] elementData
size()
}

class User{
    phone 手机号码
    sex 性别

    getSex()

}
enum TimeUnit {
DAYS
HOURS
MINUTES
}

@enduml